# xmcd
#
# Track frame offsets: 
#        150
#        20578
#        51282
#        90372
#        129473
#        165551
#        200173
#        234757
#        273541
#        306644
#        322848
#
# Disc length: 4540 seconds
#
# Revision: 0
# Processed by: cddbd v1.5.2PL0 Copyright (c) Steve Scherf et al.
# Submitted via: ExactAudioCopy v1.0b3
#
DISCID=9211ba0b
DTITLE=Various Artist - The Best In Vocal Trance Vol. 1 - CD 2
DYEAR=1900
DGENRE=
TTITLE0=ATB - Justify (Short Club Mix)
TTITLE1=Soulcry - A Life So Changed (Empyre One Vocal Mix)
TTITLE2=Plastic Angel - Try Walking In My World (Original Mix)
TTITLE3=Rene Ablaze - Ready To Start (Cyrex Rmx)
TTITLE4=Jan Johnston Meets J Joy - Rush (Tenishia Rmx)
TTITLE5=Matt Cerf Vs. Eric Meza Feat. Jaren - With Me (Original Mix)
TTITLE6=Duderstadt and Kirsty Hawkshaw - Beatitude (Duderstadt Uplifting
TTITLE6=Mash Up)
TTITLE7=Dash Berlin - Till The Sky Falls Down (Vocal Mix)
TTITLE8=Priority Q Feat. Elles De Graaf - Mirror Of My Memory (Vocal H
TTITLE8=eaven Mix)
TTITLE9=Cane - Walking A Line (De-Grees Rmx Edit)
TTITLE10=Brisby and Jingles - When You Nothing At All (Full Vocal Xtd Mi
TTITLE10=x)
EXTD=
EXTT0=
EXTT1=
EXTT2=
EXTT3=
EXTT4=
EXTT5=
EXTT6=
EXTT7=
EXTT8=
EXTT9=
EXTT10=
PLAYORDER=
